<svg width="58" height="62" viewBox="0 0 58 62" fill="none" xmlns="http://www.w3.org/2000/svg">
<path fill-rule="evenodd" clip-rule="evenodd" d="M11 1H2C1.44772 1 1 1.44772 1 2V7C1 7.55228 1.44772 8 2 8H11C11.5523 8 12 7.55228 12 7V2C12 1.44772 11.5523 1 11 1ZM2 0C0.895431 0 0 0.89543 0 2V7C0 8.10457 0.89543 9 2 9H11C12.1046 9 13 8.10457 13 7V2C13 0.895431 12.1046 0 11 0H2Z" fill="black" fill-opacity="0.5"/>
<path d="M49.9951 1.85447V2.32133H46.4541V1.85447H49.9951ZM47.8213 0H48.3682V7.17795C48.3682 7.55403 48.416 7.83934 48.5117 8.03386C48.612 8.22406 48.7419 8.35375 48.9014 8.42291C49.0654 8.48775 49.2409 8.52017 49.4277 8.52017C49.5599 8.52017 49.6807 8.51369 49.79 8.50072C49.904 8.48775 50.0179 8.47262 50.1318 8.45533L50.1797 8.90922C50.0794 8.93948 49.9495 8.96109 49.79 8.97406C49.6305 8.99135 49.4893 9 49.3662 9C49.0563 9 48.7852 8.94597 48.5527 8.8379C48.3203 8.72983 48.1403 8.54395 48.0127 8.28026C47.8851 8.01225 47.8213 7.64481 47.8213 7.17795V0Z" fill="black" fill-opacity="0.7"/>
<path d="M42.8652 3.04762V8.87039H42.3252V1.85454H42.8584L42.8652 3.04762ZM45.6816 1.80266L45.6475 2.26952C45.5654 2.25655 45.4834 2.24575 45.4014 2.2371C45.3193 2.22846 45.2327 2.22413 45.1416 2.22413C44.7497 2.22413 44.4056 2.29762 44.1094 2.44459C43.8177 2.59157 43.5716 2.79258 43.3711 3.04762C43.1751 3.30266 43.027 3.59877 42.9268 3.93595C42.8265 4.27312 42.7741 4.63408 42.7695 5.0188L42.5029 5.07067C42.5029 4.59085 42.5553 4.14776 42.6602 3.74142C42.7695 3.33508 42.9336 2.98062 43.1523 2.67802C43.3711 2.37543 43.6468 2.142 43.9795 1.97774C44.3122 1.80915 44.7041 1.72485 45.1553 1.72485C45.2646 1.72485 45.3649 1.7335 45.4561 1.75079C45.5472 1.76376 45.6224 1.78105 45.6816 1.80266Z" fill="black" fill-opacity="0.7"/>
<path d="M39.4746 7.58004V3.9554C39.4746 3.58797 39.3926 3.2724 39.2285 3.00872C39.0645 2.74503 38.8252 2.54402 38.5107 2.40569C38.1963 2.26304 37.8112 2.19171 37.3555 2.19171C36.9316 2.19171 36.5511 2.26304 36.2139 2.40569C35.8812 2.54402 35.6191 2.73422 35.4277 2.97629C35.2363 3.21837 35.1406 3.48854 35.1406 3.78681L34.5938 3.78033C34.5938 3.51232 34.6598 3.25511 34.792 3.00872C34.9287 2.76232 35.1201 2.54402 35.3662 2.35382C35.6169 2.15929 35.9108 2.00583 36.248 1.89344C36.5898 1.78105 36.9635 1.72485 37.3691 1.72485C37.8887 1.72485 38.3467 1.80915 38.7432 1.97774C39.1442 2.142 39.4564 2.39056 39.6797 2.72341C39.903 3.05627 40.0146 3.47125 40.0146 3.96837V7.43091C40.0146 7.68163 40.0329 7.93451 40.0693 8.18955C40.1058 8.44459 40.1559 8.64993 40.2197 8.80554V8.87039H39.625C39.5749 8.70612 39.5361 8.50511 39.5088 8.26736C39.486 8.02961 39.4746 7.8005 39.4746 7.58004ZM39.6523 4.88912L39.666 5.33652H37.8613C37.4056 5.33652 36.9977 5.37759 36.6377 5.45972C36.2777 5.54186 35.9723 5.65857 35.7217 5.80987C35.471 5.96116 35.2796 6.14056 35.1475 6.34805C35.0153 6.55555 34.9492 6.78897 34.9492 7.04834C34.9492 7.31635 35.0244 7.56275 35.1748 7.78753C35.3252 8.01232 35.5371 8.19171 35.8105 8.32572C36.084 8.4554 36.4007 8.52024 36.7607 8.52024C37.2529 8.52024 37.6882 8.44027 38.0664 8.28033C38.4492 8.11606 38.7705 7.8956 39.0303 7.61895C39.29 7.33797 39.4792 7.01376 39.5977 6.64632L39.8369 7.0224C39.7594 7.25151 39.6387 7.48278 39.4746 7.71621C39.3105 7.94964 39.0986 8.16361 38.8389 8.35814C38.5791 8.54834 38.2738 8.70396 37.9229 8.825C37.5719 8.94171 37.1732 9.00007 36.7266 9.00007C36.2572 9.00007 35.847 8.91794 35.4961 8.75367C35.1497 8.58508 34.8809 8.35598 34.6895 8.06635C34.498 7.7724 34.4023 7.43739 34.4023 7.06131C34.4023 6.7371 34.4798 6.44099 34.6348 6.17298C34.7897 5.90497 35.013 5.67586 35.3047 5.48566C35.6009 5.29114 35.9587 5.14416 36.3779 5.04474C36.8018 4.94099 37.278 4.88912 37.8066 4.88912H39.6523Z" fill="black" fill-opacity="0.7"/>
<path d="M33.0557 1.85447V2.32133H29.5146V1.85447H33.0557ZM30.8818 0H31.4287V7.17795C31.4287 7.55403 31.4766 7.83934 31.5723 8.03386C31.6725 8.22406 31.8024 8.35375 31.9619 8.42291C32.126 8.48775 32.3014 8.52017 32.4883 8.52017C32.6204 8.52017 32.7412 8.51369 32.8506 8.50072C32.9645 8.48775 33.0785 8.47262 33.1924 8.45533L33.2402 8.90922C33.14 8.93948 33.0101 8.96109 32.8506 8.97406C32.6911 8.99135 32.5498 9 32.4268 9C32.1169 9 31.8457 8.94597 31.6133 8.8379C31.3809 8.72983 31.2008 8.54395 31.0732 8.28026C30.9456 8.01225 30.8818 7.64481 30.8818 7.17795V0Z" fill="black" fill-opacity="0.7"/>
<path d="M27.9287 7.12615C27.9287 6.91866 27.8695 6.71333 27.751 6.51016C27.637 6.30699 27.4251 6.11678 27.1152 5.93955C26.8099 5.76232 26.3656 5.61318 25.7822 5.49214C25.3675 5.40569 25.0007 5.31059 24.6816 5.20684C24.3672 5.1031 24.1029 4.97774 23.8887 4.83076C23.6745 4.67946 23.5127 4.50007 23.4033 4.29258C23.2985 4.08508 23.2461 3.83652 23.2461 3.5469C23.2461 3.29618 23.3031 3.06059 23.417 2.84013C23.5309 2.61967 23.6973 2.4273 23.916 2.26304C24.1393 2.09445 24.4059 1.96261 24.7158 1.8675C25.0257 1.7724 25.3766 1.72485 25.7686 1.72485C26.3291 1.72485 26.8076 1.81347 27.2041 1.9907C27.6051 2.16361 27.9128 2.40353 28.127 2.71044C28.3411 3.01304 28.4482 3.36534 28.4482 3.76736H27.9014C27.9014 3.49503 27.8193 3.23998 27.6553 3.00223C27.4912 2.76448 27.2497 2.57212 26.9307 2.42514C26.6162 2.27384 26.2288 2.1982 25.7686 2.1982C25.3037 2.1982 24.9255 2.2652 24.6338 2.39921C24.3421 2.53321 24.1279 2.70396 23.9912 2.91145C23.859 3.11462 23.793 3.32212 23.793 3.53393C23.793 3.70252 23.818 3.8603 23.8682 4.00727C23.9229 4.14993 24.0254 4.28177 24.1758 4.40281C24.3262 4.52384 24.5426 4.64056 24.8252 4.75295C25.1077 4.86102 25.4746 4.96261 25.9258 5.05771C26.5182 5.18307 27.0013 5.33652 27.375 5.51808C27.7487 5.69531 28.0244 5.91361 28.2021 6.17298C28.3799 6.42802 28.4688 6.74142 28.4688 7.11318C28.4688 7.38984 28.4072 7.64488 28.2842 7.87831C28.1611 8.10742 27.9834 8.30627 27.751 8.47485C27.5231 8.64344 27.2451 8.77312 26.917 8.8639C26.5889 8.95468 26.2243 9.00007 25.8232 9.00007C25.2171 9.00007 24.7021 8.90929 24.2783 8.72774C23.859 8.54186 23.54 8.29762 23.3213 7.99503C23.1071 7.69243 23 7.36606 23 7.01592H23.5469C23.5788 7.40065 23.7109 7.70324 23.9434 7.9237C24.1803 8.14416 24.4674 8.29978 24.8047 8.39056C25.1465 8.48134 25.486 8.52673 25.8232 8.52673C26.2835 8.52673 26.6686 8.45972 26.9785 8.32572C27.293 8.18739 27.5299 8.01232 27.6895 7.8005C27.849 7.58436 27.9287 7.35958 27.9287 7.12615Z" fill="black" fill-opacity="0.7"/>
<rect x="0.5" y="26.5" width="12" height="8" rx="1.5" stroke="black" stroke-opacity="0.5"/>
<path d="M57.4736 28.6259V29.0424H53.9326V28.6259H57.4736ZM55.2998 26.9717H55.8467V33.3746C55.8467 33.7101 55.8945 33.9646 55.9902 34.1381C56.0905 34.3078 56.2204 34.4235 56.3799 34.4852C56.5439 34.543 56.7194 34.5719 56.9062 34.5719C57.0384 34.5719 57.1592 34.5662 57.2686 34.5546C57.3825 34.543 57.4964 34.5295 57.6104 34.5141L57.6582 34.919C57.5579 34.946 57.4281 34.9653 57.2686 34.9768C57.109 34.9922 56.9678 35 56.8447 35C56.5348 35 56.2637 34.9518 56.0312 34.8554C55.7988 34.759 55.6188 34.5931 55.4912 34.3579C55.3636 34.1189 55.2998 33.7911 55.2998 33.3746V26.9717Z" fill="black" fill-opacity="0.7"/>
<path d="M50.2959 34.5777C50.665 34.5777 51.0137 34.5199 51.3418 34.4042C51.6745 34.2885 51.9502 34.1131 52.1689 33.8779C52.3923 33.6388 52.5176 33.3361 52.5449 32.9698H53.0781C53.0553 33.3862 52.9141 33.7468 52.6543 34.0514C52.3945 34.3522 52.0596 34.5854 51.6494 34.7513C51.2393 34.9171 50.7881 35 50.2959 35C49.8037 35 49.3639 34.9229 48.9766 34.7686C48.5938 34.6144 48.2725 34.3965 48.0127 34.115C47.7529 33.8335 47.5547 33.5038 47.418 33.1259C47.2858 32.7442 47.2197 32.3277 47.2197 31.8766V31.6336C47.2197 31.1825 47.2858 30.768 47.418 30.3901C47.5547 30.0083 47.7529 29.6767 48.0127 29.3952C48.2725 29.1137 48.5915 28.8959 48.9697 28.7416C49.3525 28.5874 49.79 28.5103 50.2822 28.5103C50.779 28.5103 51.2347 28.597 51.6494 28.7705C52.0641 28.9402 52.3991 29.1889 52.6543 29.5167C52.9141 29.8406 53.0553 30.2378 53.0781 30.7082H52.5449C52.5221 30.3226 52.4059 29.9987 52.1963 29.7365C51.9867 29.4743 51.7132 29.2757 51.376 29.1407C51.0387 29.0019 50.6742 28.9325 50.2822 28.9325C49.8447 28.9325 49.4665 29.0038 49.1475 29.1465C48.8285 29.2892 48.5664 29.4858 48.3613 29.7365C48.1562 29.9833 48.0059 30.2705 47.9102 30.5983C47.8145 30.9222 47.7666 31.2673 47.7666 31.6336V31.8766C47.7666 32.2468 47.8145 32.5957 47.9102 32.9235C48.0059 33.2474 48.1562 33.5327 48.3613 33.7795C48.5664 34.0263 48.8285 34.2211 49.1475 34.3637C49.471 34.5064 49.8538 34.5777 50.2959 34.5777Z" fill="black" fill-opacity="0.7"/>
<path d="M43.3027 35C42.8379 35 42.4072 34.9248 42.0107 34.7744C41.6143 34.6202 41.2679 34.4061 40.9717 34.1324C40.6755 33.8547 40.443 33.527 40.2744 33.1491C40.1104 32.7712 40.0283 32.3567 40.0283 31.9055V31.651C40.0283 31.1844 40.1104 30.7603 40.2744 30.3785C40.443 29.9929 40.6709 29.6613 40.958 29.3836C41.2451 29.1022 41.5755 28.8862 41.9492 28.7358C42.3275 28.5854 42.7308 28.5103 43.1592 28.5103C43.5921 28.5103 43.984 28.5777 44.335 28.7127C44.6859 28.8477 44.9867 29.0366 45.2373 29.2795C45.488 29.5225 45.6794 29.8117 45.8115 30.1471C45.9437 30.4826 46.0098 30.8528 46.0098 31.2577V31.6452H40.3701V31.223H45.4697V31.1478C45.4652 30.7545 45.3695 30.3901 45.1826 30.0546C45.0003 29.7191 44.7383 29.4492 44.3965 29.2448C44.0547 29.0366 43.6423 28.9325 43.1592 28.9325C42.7718 28.9325 42.4186 29.0019 42.0996 29.1407C41.7852 29.2795 41.514 29.4723 41.2861 29.7191C41.0583 29.9621 40.8828 30.2493 40.7598 30.5809C40.6367 30.9087 40.5752 31.2654 40.5752 31.651V31.9055C40.5752 32.2757 40.6436 32.6227 40.7803 32.9466C40.917 33.2705 41.1084 33.5559 41.3545 33.8027C41.6006 34.0456 41.89 34.2365 42.2227 34.3753C42.5553 34.5141 42.9199 34.5835 43.3164 34.5835C43.7448 34.5835 44.1367 34.5199 44.4922 34.3926C44.8477 34.2654 45.1712 34.0417 45.4629 33.7217L45.8184 33.9473C45.6543 34.1478 45.4561 34.3271 45.2236 34.4852C44.9912 34.6433 44.7155 34.7686 44.3965 34.8612C44.082 34.9537 43.7174 35 43.3027 35Z" fill="black" fill-opacity="0.7"/>
<path d="M38.2031 26V34.8843H37.6562V26H38.2031Z" fill="black" fill-opacity="0.7"/>
<path d="M33.1719 35C32.707 35 32.2764 34.9248 31.8799 34.7744C31.4834 34.6202 31.137 34.4061 30.8408 34.1324C30.5446 33.8547 30.3122 33.527 30.1436 33.1491C29.9795 32.7712 29.8975 32.3567 29.8975 31.9055V31.651C29.8975 31.1844 29.9795 30.7603 30.1436 30.3785C30.3122 29.9929 30.54 29.6613 30.8271 29.3836C31.1143 29.1022 31.4447 28.8862 31.8184 28.7358C32.1966 28.5854 32.5999 28.5103 33.0283 28.5103C33.4613 28.5103 33.8532 28.5777 34.2041 28.7127C34.555 28.8477 34.8558 29.0366 35.1064 29.2795C35.3571 29.5225 35.5485 29.8117 35.6807 30.1471C35.8128 30.4826 35.8789 30.8528 35.8789 31.2577V31.6452H30.2393V31.223H35.3389V31.1478C35.3343 30.7545 35.2386 30.3901 35.0518 30.0546C34.8695 29.7191 34.6074 29.4492 34.2656 29.2448C33.9238 29.0366 33.5114 28.9325 33.0283 28.9325C32.641 28.9325 32.2878 29.0019 31.9688 29.1407C31.6543 29.2795 31.3831 29.4723 31.1553 29.7191C30.9274 29.9621 30.752 30.2493 30.6289 30.5809C30.5059 30.9087 30.4443 31.2654 30.4443 31.651V31.9055C30.4443 32.2757 30.5127 32.6227 30.6494 32.9466C30.7861 33.2705 30.9775 33.5559 31.2236 33.8027C31.4697 34.0456 31.7591 34.2365 32.0918 34.3753C32.4245 34.5141 32.7891 34.5835 33.1855 34.5835C33.6139 34.5835 34.0059 34.5199 34.3613 34.3926C34.7168 34.2654 35.0404 34.0417 35.332 33.7217L35.6875 33.9473C35.5234 34.1478 35.3252 34.3271 35.0928 34.4852C34.8604 34.6433 34.5846 34.7686 34.2656 34.8612C33.9512 34.9537 33.5866 35 33.1719 35Z" fill="black" fill-opacity="0.7"/>
<path d="M27.9287 33.3284C27.9287 33.1433 27.8695 32.9601 27.751 32.7789C27.637 32.5977 27.4251 32.428 27.1152 32.2699C26.8099 32.1118 26.3656 31.9788 25.7822 31.8708C25.3675 31.7937 25.0007 31.7088 24.6816 31.6163C24.3672 31.5238 24.1029 31.4119 23.8887 31.2808C23.6745 31.1459 23.5127 30.9858 23.4033 30.8007C23.2985 30.6157 23.2461 30.3939 23.2461 30.1356C23.2461 29.9119 23.3031 29.7018 23.417 29.5051C23.5309 29.3085 23.6973 29.1369 23.916 28.9903C24.1393 28.8399 24.4059 28.7223 24.7158 28.6375C25.0257 28.5527 25.3766 28.5103 25.7686 28.5103C26.3291 28.5103 26.8076 28.5893 27.2041 28.7474C27.6051 28.9016 27.9128 29.1157 28.127 29.3894C28.3411 29.6594 28.4482 29.9736 28.4482 30.3322H27.9014C27.9014 30.0893 27.8193 29.8618 27.6553 29.6497C27.4912 29.4376 27.2497 29.266 26.9307 29.1349C26.6162 29 26.2288 28.9325 25.7686 28.9325C25.3037 28.9325 24.9255 28.9923 24.6338 29.1118C24.3421 29.2313 24.1279 29.3836 23.9912 29.5687C23.859 29.75 23.793 29.9351 23.793 30.124C23.793 30.2744 23.818 30.4151 23.8682 30.5462C23.9229 30.6735 24.0254 30.7911 24.1758 30.8991C24.3262 31.007 24.5426 31.1112 24.8252 31.2114C25.1077 31.3078 25.4746 31.3984 25.9258 31.4833C26.5182 31.5951 27.0013 31.732 27.375 31.8939C27.7487 32.052 28.0244 32.2468 28.2021 32.4781C28.3799 32.7056 28.4688 32.9852 28.4688 33.3168C28.4688 33.5636 28.4072 33.7911 28.2842 33.9993C28.1611 34.2037 27.9834 34.3811 27.751 34.5315C27.5231 34.6818 27.2451 34.7975 26.917 34.8785C26.5889 34.9595 26.2243 35 25.8232 35C25.2171 35 24.7021 34.919 24.2783 34.757C23.859 34.5912 23.54 34.3734 23.3213 34.1034C23.1071 33.8335 23 33.5424 23 33.23H23.5469C23.5788 33.5732 23.7109 33.8432 23.9434 34.0398C24.1803 34.2365 24.4674 34.3753 24.8047 34.4563C25.1465 34.5372 25.486 34.5777 25.8232 34.5777C26.2835 34.5777 26.6686 34.518 26.9785 34.3984C27.293 34.275 27.5299 34.1189 27.6895 33.9299C27.849 33.7371 27.9287 33.5366 27.9287 33.3284Z" fill="black" fill-opacity="0.7"/>
<path d="M49.0514 61.0341C48.6566 61.0341 48.2908 60.9586 47.9541 60.8076C47.6173 60.6528 47.3232 60.438 47.0716 60.1632C46.82 59.8845 46.6226 59.5555 46.4794 59.1762C46.34 58.7968 46.2704 58.3808 46.2704 57.9279V57.6724C46.2704 57.2041 46.34 56.7783 46.4794 56.3951C46.6226 56.008 46.8161 55.6752 47.06 55.3965C47.3038 55.1139 47.5844 54.8972 47.9018 54.7462C48.2231 54.5953 48.5657 54.5198 48.9295 54.5198C49.2972 54.5198 49.6301 54.5875 49.9281 54.723C50.2262 54.8585 50.4816 55.0481 50.6945 55.292C50.9074 55.5358 51.07 55.8261 51.1822 56.1629C51.2945 56.4996 51.3506 56.8712 51.3506 57.2776V57.6666H46.5607V57.2428H50.8919V57.1673C50.888 56.7725 50.8068 56.4067 50.6481 56.07C50.4932 55.7332 50.2707 55.4623 49.9804 55.2571C49.6901 55.0481 49.3398 54.9436 48.9295 54.9436C48.6005 54.9436 48.3005 55.0133 48.0296 55.1526C47.7625 55.292 47.5322 55.4855 47.3387 55.7332C47.1451 55.9771 46.9961 56.2654 46.8916 56.5983C46.7871 56.9273 46.7348 57.2854 46.7348 57.6724V57.9279C46.7348 58.2995 46.7929 58.6478 46.909 58.973C47.0251 59.2981 47.1877 59.5845 47.3967 59.8322C47.6057 60.0761 47.8515 60.2677 48.1341 60.407C48.4166 60.5464 48.7263 60.6161 49.063 60.6161C49.4269 60.6161 49.7597 60.5522 50.0617 60.4245C50.3636 60.2967 50.6384 60.0722 50.8861 59.751L51.188 59.9774C51.0487 60.1787 50.8803 60.3587 50.6829 60.5173C50.4855 60.676 50.2513 60.8018 49.9804 60.8947C49.7133 60.9876 49.4036 61.0341 49.0514 61.0341Z" fill="black" fill-opacity="0.7"/>
<path d="M36.5221 55.9655V60.918H36.0576V54.6359H36.5105L36.5221 55.9655ZM36.4466 57.295L36.2144 57.028C36.2454 56.6951 36.3228 56.3777 36.4466 56.0758C36.5744 55.7739 36.7428 55.5068 36.9518 55.2746C37.1647 55.0423 37.4143 54.8585 37.7007 54.723C37.991 54.5875 38.3142 54.5198 38.6703 54.5198C38.9839 54.5198 39.2645 54.5624 39.5122 54.6475C39.7638 54.7288 39.9767 54.8585 40.1509 55.0365C40.325 55.2107 40.4586 55.4391 40.5515 55.7216C40.6444 56.0042 40.6908 56.3429 40.6908 56.7377V60.918H40.2263V56.7493C40.2263 56.2771 40.1567 55.9113 40.0173 55.6519C39.878 55.3926 39.6844 55.2107 39.4367 55.1062C39.189 54.9978 38.9045 54.9436 38.5832 54.9436C38.2039 54.9436 37.8807 55.0268 37.6136 55.1933C37.3466 55.3558 37.1279 55.5629 36.9576 55.8145C36.7911 56.0622 36.6673 56.3196 36.586 56.5867C36.5047 56.8538 36.4583 57.0899 36.4466 57.295ZM40.685 56.7783L40.3715 56.668C40.4025 56.3854 40.4818 56.1164 40.6095 55.861C40.7411 55.6016 40.9134 55.3733 41.1263 55.1759C41.3392 54.9746 41.5888 54.8159 41.8752 54.6998C42.1655 54.5798 42.4868 54.5198 42.839 54.5198C43.1603 54.5198 43.4467 54.5643 43.6983 54.6533C43.9538 54.7385 44.1667 54.8759 44.337 55.0655C44.5111 55.2513 44.6447 55.4913 44.7376 55.7855C44.8305 56.0758 44.8769 56.428 44.8769 56.8422V60.918H44.4124V56.8364C44.4124 56.3409 44.3428 55.9558 44.2034 55.681C44.0641 55.4062 43.8706 55.2146 43.6228 55.1062C43.3751 54.9939 43.0887 54.9397 42.7636 54.9436C42.4191 54.9475 42.1191 55.0113 41.8636 55.1352C41.6082 55.2591 41.3953 55.4158 41.225 55.6055C41.0547 55.7952 40.925 55.9945 40.836 56.2035C40.7469 56.4087 40.6966 56.6003 40.685 56.7783Z" fill="black" fill-opacity="0.7"/>
<path d="M29.0731 57.8872V57.6666C29.0731 57.206 29.1389 56.7841 29.2705 56.4009C29.4059 56.0177 29.5956 55.6868 29.8394 55.4081C30.0833 55.1255 30.3736 54.9068 30.7103 54.752C31.051 54.5972 31.4284 54.5198 31.8425 54.5198C32.2567 54.5198 32.6341 54.5972 32.9747 54.752C33.3153 54.9068 33.6075 55.1255 33.8514 55.4081C34.0991 55.6868 34.2888 56.0177 34.4204 56.4009C34.552 56.7841 34.6178 57.206 34.6178 57.6666V57.8872C34.6178 58.3478 34.552 58.7698 34.4204 59.1529C34.2888 59.5361 34.101 59.869 33.8572 60.1516C33.6133 60.4303 33.3211 60.647 32.9805 60.8018C32.6437 60.9567 32.2683 61.0341 31.8541 61.0341C31.4361 61.0341 31.0568 60.9567 30.7162 60.8018C30.3794 60.647 30.0872 60.4303 29.8394 60.1516C29.5956 59.869 29.4059 59.5361 29.2705 59.1529C29.1389 58.7698 29.0731 58.3478 29.0731 57.8872ZM29.5375 57.6666V57.8872C29.5375 58.2511 29.5879 58.5975 29.6885 58.9265C29.793 59.2516 29.944 59.5419 30.1414 59.7974C30.3388 60.049 30.5807 60.2483 30.8671 60.3954C31.1535 60.5386 31.4825 60.6102 31.8541 60.6102C32.218 60.6102 32.5431 60.5386 32.8295 60.3954C33.116 60.2483 33.3559 60.049 33.5495 59.7974C33.7469 59.5419 33.8959 59.2516 33.9965 58.9265C34.101 58.5975 34.1533 58.2511 34.1533 57.8872V57.6666C34.1533 57.3105 34.101 56.9699 33.9965 56.6448C33.8959 56.3196 33.7469 56.0293 33.5495 55.7739C33.3521 55.5184 33.1101 55.3171 32.8237 55.17C32.5373 55.0191 32.2102 54.9436 31.8425 54.9436C31.4748 54.9436 31.1477 55.0191 30.8613 55.17C30.5787 55.3171 30.3368 55.5184 30.1356 55.7739C29.9381 56.0293 29.7891 56.3196 29.6885 56.6448C29.5879 56.9699 29.5375 57.3105 29.5375 57.6666Z" fill="black" fill-opacity="0.7"/>
<path d="M23.4587 52V60.918H23V52H23.4587ZM23.3716 57.2951L23.1451 57.028C23.18 56.6951 23.2613 56.3777 23.389 56.0758C23.5206 55.7739 23.6928 55.5068 23.9057 55.2746C24.1225 55.0423 24.3741 54.8585 24.6605 54.723C24.9508 54.5875 25.2701 54.5198 25.6185 54.5198C25.932 54.5198 26.2126 54.5643 26.4604 54.6533C26.7081 54.7385 26.9171 54.874 27.0874 55.0598C27.2616 55.2455 27.3932 55.4855 27.4822 55.7797C27.5712 56.07 27.6158 56.4242 27.6158 56.8422V60.918H27.1571V56.8422C27.1571 56.3467 27.0893 55.9635 26.9539 55.6926C26.8184 55.4178 26.6287 55.2243 26.3849 55.112C26.1449 54.9998 25.8643 54.9436 25.543 54.9436C25.1714 54.9436 24.8502 55.0268 24.5792 55.1933C24.3122 55.3559 24.0915 55.5629 23.9173 55.8145C23.7432 56.0622 23.6096 56.3196 23.5167 56.5867C23.4277 56.8538 23.3793 57.0899 23.3716 57.2951Z" fill="black" fill-opacity="0.7"/>
<rect x="0.5" y="52.5" width="12" height="8" rx="1.5" stroke="black" stroke-opacity="0.5"/>
<path d="M4.00009 55.9564V58.6953C4.00009 58.8638 4.13545 59 4.30204 59H5.41264C5.4929 59.0004 5.57013 58.9685 5.62696 58.9111C5.68379 58.8542 5.71589 58.7763 5.71589 58.6953V57.39C5.71589 57.2215 5.85125 57.0849 6.01828 57.0849H6.98225C7.06207 57.0849 7.13887 57.1173 7.1957 57.1742C7.25253 57.2315 7.2842 57.309 7.2842 57.39V58.6953C7.2842 58.7763 7.3163 58.8542 7.37313 58.9111C7.42996 58.9685 7.50718 59.0004 7.58745 59H8.69805C8.77788 59 8.8551 58.968 8.9115 58.9107C8.96833 58.8538 9 58.7763 9 58.6953V55.9564C8.99783 55.8609 8.95185 55.7721 8.87549 55.7156L6.67982 54.0604C6.57267 53.9799 6.42516 53.9799 6.31801 54.0604L4.12234 55.7156C4.04686 55.7725 4.00183 55.8614 4.00009 55.9564Z" fill="black" fill-opacity="0.5"/>
</svg>
