<svg width="35" height="26" viewBox="0 0 35 26" fill="none" xmlns="http://www.w3.org/2000/svg">
<path d="M18.958 22.0381V25.1864H22.1244H25.2907V22.0381H22.1244H18.958Z" fill="#888888"/>
<path d="M12.6654 25.1864H15.8318V22.0381H12.6654H9.49902V25.1864H12.6654Z" fill="#888888"/>
<path d="M31.6236 12.5928V9.4445H28.4572V6.29622H25.2909V3.14795H22.1245V6.29622H18.9581H15.7918H12.6254V3.14795H9.45902V6.29622H6.29265V9.4445H3.12629V12.5928H0V15.741V18.8893V22.0376H3.16637V18.8893V15.741H6.33273V18.8893V22.0376H9.4991V18.8893H12.6655H15.8318H18.9982H22.1646H25.3309V22.0376H28.4973V18.8893V15.741H31.6637V18.8893V22.0376H34.83V18.8893V15.741V12.5928H31.6236ZM25.2909 9.4445V12.5928H22.1245V9.4445H25.2909ZM12.6655 9.4445V12.5928H9.4991V9.4445H12.6655Z" fill="#888888"/>
<path d="M9.49913 0H6.33276V3.14827H9.49913V0Z" fill="#888888"/>
<path d="M28.4571 0H25.2908V3.14827H28.4571V0Z" fill="#888888"/>
</svg>
