<svg width="26" height="26" viewBox="0 0 26 26" fill="none" xmlns="http://www.w3.org/2000/svg">
<path d="M5.82998 10.0931V8.42643V6.75977H4.16331V8.42643H2.49664V10.0931H4.16331H5.82998Z" fill="#888888"/>
<path d="M15.8301 5.09359H17.4967H19.1634V3.42692H17.4967V1.76025H15.8301V3.42692V5.09359Z" fill="#888888"/>
<path d="M20.83 15.0933V16.7599V18.4266H22.4967V16.7599H24.1633V15.0933H22.4967H20.83Z" fill="#888888"/>
<path d="M15.83 0.0932617H10.83V1.75993H15.83V0.0932617Z" fill="#888888"/>
<path d="M25.8301 10.0933H24.1634V15.0933H25.8301V10.0933Z" fill="#888888"/>
<path d="M2.49668 10.0933H0.830017V15.0933H2.49668V10.0933Z" fill="#888888"/>
<path d="M15.83 6.75977H10.83V8.42643H15.83V6.75977Z" fill="#888888"/>
<path d="M10.83 8.42676H9.16333V10.0934H10.83V8.42676Z" fill="#888888"/>
<path d="M9.16337 10.0933H7.4967V15.0933H9.16337V10.0933Z" fill="#888888"/>
<path d="M17.4967 8.42676H15.8301V10.0934H17.4967V8.42676Z" fill="#888888"/>
<path d="M19.1634 10.0933H17.4967V15.0933H19.1634V10.0933Z" fill="#888888"/>
<path d="M10.83 15.0933H9.16333V16.7599H10.83V15.0933Z" fill="#888888"/>
<path d="M17.4967 15.0933H15.8301V16.7599H17.4967V15.0933Z" fill="#888888"/>
<path d="M15.83 16.7598H10.83V18.4264H15.83V16.7598Z" fill="#888888"/>
<path d="M10.83 20.0933H9.16337H7.4967V21.7599H9.16337V23.4266H10.83V21.7599V20.0933Z" fill="#888888"/>
<path d="M15.83 23.4263H10.83V25.0929H15.83V23.4263Z" fill="#888888"/>
<path d="M9.16337 5.09359H10.83V3.42692V1.76025H9.16337V3.42692H7.4967V5.09359H9.16337Z" fill="#888888"/>
<path d="M7.49672 3.42692V1.76025H5.83006H4.16339V3.42692H5.83006H7.49672Z" fill="#888888"/>
<path d="M4.16331 3.42676H2.49664V5.09342V6.76009H4.16331V5.09342V3.42676Z" fill="#888888"/>
<path d="M20.83 8.42643V10.0931H22.4967H24.1633V8.42643H22.4967V6.75977H20.83V8.42643Z" fill="#888888"/>
<path d="M22.4967 1.76025H19.1633V3.42692H22.4967V1.76025Z" fill="#888888"/>
<path d="M24.1634 3.42676H22.4967V6.76009H24.1634V3.42676Z" fill="#888888"/>
<path d="M17.4967 20.0933H15.8301V21.7599V23.4266H17.4967V21.7599H19.1634V20.0933H17.4967Z" fill="#888888"/>
<path d="M22.4967 21.7598H19.1633V23.4264H22.4967V21.7598Z" fill="#888888"/>
<path d="M24.1634 18.4268H22.4967V21.7601H24.1634V18.4268Z" fill="#888888"/>
<path d="M5.82998 16.7599V15.0933H4.16331H2.49664V16.7599H4.16331V18.4266H5.82998V16.7599Z" fill="#888888"/>
<path d="M4.16331 18.4268H2.49664V21.7601H4.16331V18.4268Z" fill="#888888"/>
<path d="M7.49672 21.7598H4.16339V23.4264H7.49672V21.7598Z" fill="#888888"/>
<path fill-rule="evenodd" clip-rule="evenodd" d="M21.9238 9.46826H23.4863L24.6581 10.6401V14.5464L23.0956 16.1089L21.9238 16.4995L21.9238 18.062L23.0956 18.8433V21.187L21.5331 22.7495L19.58 21.9683L18.0175 21.187L16.455 21.9683V22.7495L14.5019 24.7026L11.7675 24.312L9.81439 22.3589L9.03314 20.7964L7.86126 21.187L7.08001 22.3589H4.34564L4.73627 21.9683H4.34564L3.17377 20.7964V18.8433H3.95502L4.34564 18.062L4.73627 16.8901L3.95502 15.7183L2.78314 15.3276L1.22064 14.1558L1.61127 11.0308L3.17377 9.46826L4.34564 8.68701L4.73627 7.12451L3.17377 5.95263L3.95502 3.60889L4.73627 2.82764L6.68939 2.43701L8.25189 4.39014H9.81439L10.205 2.82764V2.43701L11.7675 0.874512H15.6738L16.455 4.39014H18.0175L18.7988 3.99951L19.58 2.82764H20.7519L22.3144 3.21826L23.4863 4.39014V5.56201V6.34326L21.5331 7.12451L21.9238 7.51513C21.7936 8.16618 21.6113 9.46826 21.9238 9.46826ZM10.9863 7.90576H15.2831L16.455 9.07763L18.4081 11.0308V14.937H17.6269L16.8456 15.7183L16.0644 16.4995L14.5019 18.062L11.3769 17.2808L9.81439 15.7183L8.25189 14.1558L8.64252 10.2495L9.81439 9.85888L10.5956 8.68701L10.9863 8.29638V7.90576Z" fill="#888888"/>
</svg>
