<svg width="35" height="41" viewBox="0 0 35 41" fill="none" xmlns="http://www.w3.org/2000/svg">
<path d="M1.50738 37.4386V39.2182L0 39.216V7.1309H1.50738V37.4386ZM9.12931 1.7774H33.4748V0H6.07414V1.77958H9.12235L9.12931 1.7774ZM33.4748 21.3921V39.2166H35V17.8245H33.4748V21.3921ZM31.9451 12.4766V17.824L33.4748 17.8245V10.6993H31.9451V12.4766ZM30.4265 39.216H1.50743V41H33.4748V39.216H30.4265ZM4.56203 8.91952V12.4764H6.07386V7.13118H4.56203V8.91952ZM3.03679 5.3516H1.50709V7.13556H3.02566L3.03679 5.3516ZM4.56203 3.56764H3.03679V5.3516H4.56203V3.56764ZM6.07386 1.77711H4.56203V3.56108H6.07386V1.77711ZM25.8594 5.3516V8.91952H27.3846L27.3824 3.56108H25.8594L25.8594 5.3516ZM28.9076 5.3516V8.91952H30.4328V3.56108H28.9076V5.3516ZM22.8155 5.3516V8.91952H24.3408V3.56108H22.8155V5.3516ZM33.4748 1.7774L33.4744 10.6966H34.9996V1.77711L33.4748 1.7774ZM16.7326 5.3516V8.91952H18.2511L18.2489 3.56108H16.7326L16.7326 5.3516ZM10.6405 5.3516V8.91952H12.1658V3.56108H10.6405V5.3516ZM19.7741 5.3516V8.91952H21.2926V3.56108H19.7741V5.3516ZM13.6888 5.3516V8.91952H15.2074V3.56108H13.6888V5.3516ZM7.60361 5.3516V8.91952H9.12886V3.56108H7.60361V5.3516Z" fill="#F69631"/>
</svg>
